<svg width="16" height="16" viewBox="0 0 16 16" fill="none" xmlns="http://www.w3.org/2000/svg">
<path fill-rule="evenodd" clip-rule="evenodd" d="M4.83351 4.83334V4.75343C4.83351 3.30826 5.81191 2.04644 7.21154 1.68653C7.72888 1.5535 8.27146 1.5535 8.7888 1.68653C10.1884 2.04644 11.1668 3.30827 11.1668 4.75343V4.83334H12.1676C12.5484 4.83334 12.8717 5.11267 12.9269 5.4895L13.0727 6.48446C13.3597 8.44344 13.3597 10.4338 13.0727 12.3927C12.9341 13.3388 12.1712 14.0701 11.2202 14.1688L10.8009 14.2122C8.93875 14.4054 7.06159 14.4054 5.19942 14.2122L4.78017 14.1688C3.82915 14.0701 3.06629 13.3388 2.92767 12.3928C2.64065 10.4338 2.64065 8.44343 2.92767 6.48446L3.07346 5.4895C3.12867 5.11266 3.4519 4.83334 3.83275 4.83334H4.83351ZM7.46058 2.65503C7.81455 2.56401 8.18579 2.56401 8.53976 2.65503C9.4974 2.90128 10.1668 3.76463 10.1668 4.75343V4.83334H5.83351V4.75343C5.83351 3.76463 6.50294 2.90128 7.46058 2.65503ZM4.83351 5.83334V7.33334C4.83351 7.60949 5.05736 7.83334 5.33351 7.83334C5.60965 7.83334 5.83351 7.60949 5.83351 7.33334V5.83334H10.1668V7.33334C10.1668 7.60949 10.3907 7.83334 10.6668 7.83334C10.943 7.83334 11.1668 7.60949 11.1668 7.33334V5.83334H11.9666L12.0832 6.62944C12.3562 8.49227 12.3562 10.3849 12.0832 12.2478C12.0109 12.7412 11.613 13.1227 11.117 13.1741L10.6978 13.2176C8.90418 13.4036 7.09616 13.4036 5.30257 13.2176L4.88332 13.1741C4.38729 13.1227 3.98941 12.7412 3.91711 12.2478C3.64417 10.3849 3.64417 8.49227 3.91711 6.62943L4.03375 5.83334H4.83351Z" fill="#6B7683"/>
</svg>
