<svg width="18" height="18" viewBox="0 0 18 18" fill="none" xmlns="http://www.w3.org/2000/svg">
<path fill-rule="evenodd" clip-rule="evenodd" d="M10.789 11.5843C8.80134 13.1763 5.89177 13.051 4.04918 11.2085C2.07215 9.23142 2.07215 6.02602 4.04918 4.049C6.02621 2.07197 9.2316 2.07197 11.2086 4.049C13.0512 5.89158 13.1765 8.80115 11.5845 10.7889L15.4513 14.6556C15.6709 14.8752 15.6709 15.2314 15.4513 15.4511C15.2316 15.6707 14.8754 15.6707 14.6558 15.4511L10.789 11.5843ZM4.84467 10.413C3.30698 8.87527 3.30698 6.38218 4.84467 4.84449C6.38236 3.3068 8.87545 3.3068 10.4131 4.84449C11.9497 6.38105 11.9508 8.87161 10.4165 10.4096C10.4154 10.4107 10.4143 10.4118 10.4131 10.4129C10.412 10.4141 10.4109 10.4152 10.4098 10.4163C8.8718 11.9506 6.38124 11.9495 4.84467 10.413Z" fill="#6B7683"/>
</svg>
